<svg width="71" height="172" viewBox="0 0 71 172" fill="none" xmlns="http://www.w3.org/2000/svg">
<path d="M50.2812 65.4766C50.2812 65.8411 50.138 66.1667 49.8516 66.4531C49.5911 66.7135 49.2786 66.8438 48.9141 66.8438C48.5234 66.8438 48.1979 66.7135 47.9375 66.4531C47.6771 66.1667 47.5469 65.8411 47.5469 65.4766V29.2656C47.5469 28.6146 47.3125 27.9115 46.8438 27.1562C46.375 26.401 45.776 25.6979 45.0469 25.0469C44.3177 24.3698 43.5104 23.8099 42.625 23.3672C41.7396 22.9245 40.8802 22.7031 40.0469 22.7031H33.9141C33.237 22.7031 32.4818 22.8724 31.6484 23.2109C30.8411 23.5495 30.0339 24.0182 29.2266 24.6172C28.4193 25.2161 27.625 25.9323 26.8438 26.7656C26.0885 27.5729 25.4115 28.4583 24.8125 29.4219C24.2135 30.3854 23.7318 31.4141 23.3672 32.5078C23.0286 33.5755 22.8594 34.6693 22.8594 35.7891V65.4766C22.8594 65.8411 22.7292 66.1667 22.4688 66.4531C22.2083 66.7135 21.8828 66.8438 21.4922 66.8438C21.1276 66.8438 20.8021 66.7135 20.5156 66.4531C20.2552 66.1667 20.125 65.8411 20.125 65.4766V35.7891C20.125 34.3568 20.3464 32.9766 20.7891 31.6484C21.2318 30.2943 21.8177 29.0312 22.5469 27.8594C23.276 26.6875 24.1094 25.6198 25.0469 24.6562C26.0104 23.6927 27 22.8724 28.0156 22.1953C29.0312 21.4922 30.0339 20.9453 31.0234 20.5547C32.0391 20.1641 32.9766 19.9688 33.8359 19.9688V13.3672C33.8359 13.0026 33.9661 12.6901 34.2266 12.4297C34.487 12.1432 34.7995 12 35.1641 12H35.2031C35.5938 12 35.9193 12.1432 36.1797 12.4297C36.4401 12.6901 36.5703 13.0026 36.5703 13.3672V19.9688H40.0469C41.1667 19.9688 42.3255 20.2552 43.5234 20.8281C44.7474 21.375 45.8542 22.0911 46.8438 22.9766C47.8594 23.862 48.6797 24.8646 49.3047 25.9844C49.9557 27.0781 50.2812 28.1719 50.2812 29.2656V65.4766Z" fill="black"/>
<path d="M58.3672 86.7656C58.3672 88.5104 58.263 90.151 58.0547 91.6875C57.8724 93.1979 57.4688 94.526 56.8438 95.6719C56.2188 96.7917 55.3073 97.6901 54.1094 98.3672C52.9115 99.0182 51.3099 99.3438 49.3047 99.3438H46.4141C44.4089 99.3438 42.8073 99.0182 41.6094 98.3672C40.4115 97.6901 39.5 96.7786 38.875 95.6328C38.25 94.487 37.8464 93.1589 37.6641 91.6484C37.4818 90.112 37.3906 88.4714 37.3906 86.7266V74.5781H32.9766V86.7266C32.9766 88.4714 32.8854 90.112 32.7031 91.6484C32.5208 93.1589 32.1172 94.487 31.4922 95.6328C30.8672 96.7786 29.9557 97.6901 28.7578 98.3672C27.5599 99.0182 25.9583 99.3438 23.9531 99.3438H21.0625C19.0573 99.3438 17.4557 99.0182 16.2578 98.3672C15.0599 97.6901 14.1484 96.7917 13.5234 95.6719C12.8984 94.526 12.4818 93.1979 12.2734 91.6875C12.0911 90.151 12 88.5104 12 86.7656V84.5391C12 82.7943 12.0911 81.1536 12.2734 79.6172C12.4818 78.0807 12.8984 76.7396 13.5234 75.5938C14.1484 74.4479 15.0599 73.5365 16.2578 72.8594C17.4557 72.1823 19.0573 71.8438 21.0625 71.8438H49.3047C51.3099 71.8438 52.9115 72.1823 54.1094 72.8594C55.3073 73.5365 56.2188 74.4479 56.8438 75.5938C57.4688 76.7396 57.8724 78.0807 58.0547 79.6172C58.263 81.1536 58.3672 82.7943 58.3672 84.5391V86.7656ZM55.6328 84.5391C55.6328 82.7422 55.5286 81.2188 55.3203 79.9688C55.138 78.7188 54.7604 77.7031 54.1875 76.9219C53.6406 76.1146 52.8724 75.5286 51.8828 75.1641C50.8932 74.7995 49.6042 74.6172 48.0156 74.6172H40.125V86.8047C40.125 88.6016 40.2161 90.125 40.3984 91.375C40.5807 92.599 40.9323 93.6016 41.4531 94.3828C42 95.1641 42.7682 95.737 43.7578 96.1016C44.7474 96.4401 46.0495 96.6094 47.6641 96.6094H48.0547C49.6693 96.6094 50.9714 96.4401 51.9609 96.1016C52.9505 95.737 53.7188 95.1641 54.2656 94.3828C54.8125 93.6016 55.1771 92.599 55.3594 91.375C55.5417 90.125 55.6328 88.6016 55.6328 86.8047V84.5391ZM30.2422 74.6172H22.3516C20.763 74.6172 19.474 74.7995 18.4844 75.1641C17.4948 75.5286 16.7135 76.1146 16.1406 76.9219C15.5938 77.7031 15.2161 78.7188 15.0078 79.9688C14.8255 81.2188 14.7344 82.7422 14.7344 84.5391V86.8047C14.7344 88.6016 14.8255 90.125 15.0078 91.375C15.1901 92.599 15.5547 93.6016 16.1016 94.3828C16.6484 95.1641 17.4167 95.737 18.4062 96.1016C19.3958 96.4401 20.6979 96.6094 22.3125 96.6094H22.7031C24.3177 96.6094 25.6198 96.4401 26.6094 96.1016C27.599 95.737 28.3542 95.1641 28.875 94.3828C29.4219 93.6016 29.7865 92.599 29.9688 91.375C30.151 90.125 30.2422 88.6016 30.2422 86.8047V74.6172Z" fill="black"/>
<path d="M47.5909 157.938C47.5909 158.328 47.4477 158.667 47.1612 158.953C46.9008 159.214 46.5883 159.344 46.2237 159.344H25.13C24.7654 159.344 24.4399 159.214 24.1534 158.953C23.8669 158.693 23.7237 158.367 23.7237 157.977L36.7315 105.711C36.8357 105.346 37.044 105.073 37.3565 104.891C37.669 104.682 38.0076 104.617 38.3722 104.695C38.6326 104.747 38.8539 104.878 39.0362 105.086C39.2185 105.268 39.3357 105.477 39.3878 105.711L26.8487 156.57H46.2237C46.5883 156.57 46.9008 156.714 47.1612 157C47.4477 157.26 47.5909 157.573 47.5909 157.938Z" fill="black"/>
</svg>
