<svg width="197" height="66" viewBox="0 0 197 66" fill="none" xmlns="http://www.w3.org/2000/svg">
<path d="M22.24 23.52C22.24 29.36 44 25.68 44 40.64C44 48.8 37.52 53.2 28.4 53.2C19.92 53.2 14.48 49.36 12 47.12L17.12 39.6C20.48 42.8 24.72 44.4 28.64 44.4C31.92 44.4 34.4 43.28 34.4 40.96C34.4 34.08 12.64 38.32 12.64 23.68C12.64 16.32 18.16 12.08 27.2 12.08C35.12 12.08 40.32 15.28 43.84 18.16L38.72 25.6C34.48 22.08 30.32 20.88 27.04 20.88C23.92 20.88 22.24 21.92 22.24 23.52Z" fill="black"/>
<path d="M66.4006 12C73.3606 12 77.5206 14.8 80.0006 18.4C82.4806 14.8 86.6406 12 93.6006 12C106.801 12 112.001 21.92 112.001 28.88V52.72H102.401V29.12C102.401 23.44 98.2406 20.88 93.6006 20.88C88.9606 20.88 84.8006 23.44 84.8006 29.12V52.72H75.2006V29.12C75.2006 23.44 71.0406 20.88 66.4006 20.88C61.7606 20.88 57.6006 23.44 57.6006 29.12V52.72H48.0006V28.88C48.0006 21.92 53.2006 12 66.4006 12Z" fill="black"/>
<path d="M116.304 30.32C116.304 18.16 124.34 12 136.5 12V21C130.1 21 125.904 23.92 125.904 30.32V52.72H116.304V30.32Z" fill="black"/>
<path d="M146.781 27.12H166.861C165.181 23.2 161.581 20.96 156.781 20.96C152.061 20.96 148.461 23.2 146.781 27.12ZM156.781 44.64C160.781 44.64 163.901 43.12 165.821 40.32H176.301C173.661 48.4 166.541 53.44 156.861 53.44C144.461 53.44 136.141 45.12 136.141 32.72C136.141 20.4 144.461 12.16 156.861 12.16C169.261 12.16 177.501 20.4 177.501 32.72C177.501 33.84 177.421 34.88 177.341 35.92H146.061C147.101 41.44 151.101 44.64 156.781 44.64Z" fill="black"/>
<path d="M176.301 47.52C176.301 44 178.701 41.68 182.221 41.68C185.741 41.68 188.141 44 188.141 47.52C188.141 51.12 185.741 53.44 182.221 53.44C178.701 53.44 176.301 51.12 176.301 47.52Z" fill="black"/>
</svg>
